PathFileType	4	(X/Y/Z)	24_2_91_p0_0-320.trc
DataRate	CameraRate	NumFrames	NumMarkers	Units	OrigDataRate	OrigDataStartFrame	OrigNumFrames
60.0	60.0	5	27	m	60.0	160	321
Frame#	Time	RHip			RKnee			RAnkle			RBigToe			RSmallToe			RHeel			LHip			LKnee			LAnkle			LBigToe			LSmallToe			LHeel			Neck			Head			Nose			RShoulder			RElbow			RWrist			RThumb			RIndex			RPinky			LShoulder			LElbow			LWrist			LThumb			LIndex			LPinky			
		X1	Y1	Z1	X2	Y2	Z2	X3	Y3	Z3	X4	Y4	Z4	X5	Y5	Z5	X6	Y6	Z6	X7	Y7	Z7	X8	Y8	Z8	X9	Y9	Z9	X10	Y10	Z10	X11	Y11	Z11	X12	Y12	Z12	X13	Y13	Z13	X14	Y14	Z14	X15	Y15	Z15	X16	Y16	Z16	X17	Y17	Z17	X18	Y18	Z18	X19	Y19	Z19	X20	Y20	Z20	X21	Y21	Z21	X22	Y22	Z22	X23	Y23	Z23	X24	Y24	Z24	X25	Y25	Z25	X26	Y26	Z26	X27	Y27	Z27	
160	2.6666666666666665	0.4280668426243955	0.5732418526328248	0.8352180236161061	0.4413794336153093	0.6341511113037438	1.2947318906129217	0.43185300369562396	0.6935931395370739	1.6872492737523312	0.4090093398576154	0.49993463974905966	1.693239978744394	0.4751182495507606	0.5041445642927339	1.6766635499255318	0.41888659699411085	0.7367160351739156	1.7419474012004963	0.24061324253823044	0.5503655129827179	0.8390096911041656	0.20300753949394473	0.6077101017086979	1.2839804760728417	0.2050223524036299	0.6831349081975587	1.7041060051550727	0.24137014332930162	0.4530316692359135	1.673073493391856	0.1816977752189246	0.5365069071695662	1.707008122147214	0.21775255246501435	0.7170440328860561	1.7433944311982523	0.3098583215084997	0.46412867198997254	0.34708175652622175	0.2702727090968228	0.3597685793087578	0.10423469044803133	0.31212031136520096	0.2935870221671832	0.24461461820709476	0.4580219241308214	0.42384600991797816	0.38316965006679315	0.49543693368869113	0.22221578260174857	0.5534858600517767	0.3774416047754865	0.0013831967013067702	0.5098926363905057	0.28228358811267745	-0.02112387098081087	0.4721488886087015	0.28331446082986517	-0.07165029372203696	0.476865491019388	0.3011666744036837	-0.0708638371206599	0.516493232477728	0.1834905064021468	0.4578932427026181	0.39282631360826226	0.17040317253517215	0.19333534072085498	0.3192540527983606	0.294496566438617	0.12195195161172694	0.18850009251446503	0.37056936268426616	0.07156524023596122	0.11889373853104286	0.3649246733102136	0.0594340418233452	0.09226844401043989	0.34379307018533223	0.06560940336203266	0.11607903055846641
161	2.683333333333333	0.42798821931768993	0.5733064051784557	0.8353579514130516	0.44188361317910796	0.6328378112120022	1.2984805810948996	0.4318522479787297	0.6937510455123949	1.6873967374229257	0.4090925627327877	0.49972348691983115	1.692970051570564	0.4741955379875091	0.505015627720262	1.68093732283988	0.41883505526533826	0.7375024403867354	1.7422117981260392	0.23485494568701087	0.5642863103047219	0.8420725723288355	0.20443541688480385	0.6057833232377451	1.2835067673675271	0.2050295319784875	0.6831377696368138	1.7041382299837389	0.24197693905015474	0.45530456168101535	1.6777353423845234	0.18836063929954036	0.5220526053519212	1.699714782064167	0.21774139389540792	0.7168912643550486	1.743287341114164	0.31331271317650966	0.4666490053710208	0.34257144918477656	0.2704394553179775	0.35834644435463375	0.10431882024908118	0.3121334502943731	0.2935356551128231	0.2444251204853221	0.45876247357985	0.42456347563528596	0.39051864509722967	0.4834160401436046	0.2463242520928786	0.5679206980092903	0.3703106809630077	0.00951162773417038	0.5307180818617938	0.2755707954419705	-0.021018505158657705	0.49488227300861437	0.2715545467155135	-0.06502604157630726	0.4901797235307862	0.28569897006957606	-0.0644153861455081	0.5453065483902301	0.18740625135008127	0.4891367590901765	0.41157449625829445	0.1660555115949544	0.21391798682214067	0.3301654395592107	0.2901814717826542	0.11563757101530876	0.19286713921829723	0.3682326958043837	0.06947546888894603	0.12279958692336544	0.3700400604361972	0.0501968608733304	0.10123714063253228	0.3439176045444061	0.06496242022102387	0.12267771378924731
162	2.7	0.427719560587566	0.5731110695999407	0.8428639935120947	0.4427576082543556	0.6319940950334095	1.294022707885147	0.4318664844457959	0.6942798447698962	1.6872815761786313	0.40904620753234133	0.5001997766561769	1.6933373405856311	0.47416980574700984	0.505312674528424	1.6810918995177861	0.4188324687085432	0.7377096476225284	1.7422360451211742	0.2351075796382916	0.5640326541078091	0.8460610950089583	0.2044011671265889	0.60581517260844	1.2834280256991049	0.20501225600330697	0.6831815251024748	1.7041008538245372	0.24187814054371465	0.455595785863251	1.6780547460927926	0.18161591170861469	0.5368981896054676	1.7074820759110334	0.21778397701979102	0.7172226287008091	1.7433589662226365	0.3091789418622263	0.46462877249961104	0.3426490406095563	0.2759404652892215	0.34803451968917487	0.10510904095297727	0.3117702258849098	0.2943535853376384	0.23988823647047972	0.4588074008757539	0.42417157624904284	0.39756968819304067	0.4833718853095382	0.2479015556466454	0.5818095459210815	0.35752891310345697	0.026679934850964402	0.5504296113412421	0.27040430131851567	-0.02733001987978458	0.515458680096743	0.26409435680613697	-0.051628484149255464	0.5196378186779765	0.2682058203660357	-0.048319628995488764	0.5623578471713723	0.18459573525932652	0.4700108737641389	0.38886411306834845	0.16006147699395717	0.2139416049647698	0.32956707429904014	0.29546449113782003	0.10989479753221182	0.1923344305548373	0.3734148038729328	0.059838196057668255	0.12174744826109118	0.36984775508270457	0.0587500314277273	0.10299274108315946	0.3443015905927661	0.06512095717285515	0.12361008705669776
163	2.716666666666667	0.4236783548801132	0.5721232051494428	0.8353613016338725	0.44276812179902764	0.6319265488208772	1.2940312520262247	0.4318952158868344	0.6940168193361363	1.687184800150182	0.40903492846660555	0.49978818229097527	1.69316915477103	0.4741538972176442	0.5049028084690168	1.680872477185996	0.41879964314865126	0.7374045272941808	1.7420140006140694	0.24149213794665267	0.5487034159479072	0.839179222011325	0.20443338055560717	0.6057907646839779	1.2833807085630418	0.20440590343625764	0.6802565348997588	1.698297568235473	0.24191945876317125	0.45548595046231527	1.6778865383131243	0.1816641943928535	0.5366838260340485	1.7072174755347689	0.21779435777945833	0.7169194225880738	1.7431914563252433	0.30908170911176797	0.4643704937998004	0.3424929905409775	0.2763208651647736	0.34906167252066034	0.10572801734825495	0.3118519104398919	0.2923867842035608	0.23641124887853293	0.46326610206200075	0.4122850184155611	0.39356775131024935	0.48345441836104913	0.24957967942064754	0.5864313350283807	0.33680243291493217	0.013680145965173151	0.5664516099911621	0.25381767674028494	-0.032568068143265655	0.5510028153791623	0.2530377700496816	-0.05265258033017956	0.5550122461158306	0.262171451743309	-0.03707486678218806	0.5915879203537546	0.1843324374755643	0.4705269248531664	0.38521249202162566	0.15376592932786348	0.22518586912922597	0.3344886942268608	0.295920481488685	0.1106889813418035	0.19214251534972854	0.3736089249161192	0.059537402224704786	0.12451065440279499	0.3676795584104996	0.049096446707109935	0.10584361380077151	0.34429619317016336	0.06530931510230192	0.12349848191993144
164	2.7333333333333334	0.42356642075128415	0.5722546107896858	0.8353311079673021	0.4419458723842225	0.6327196529370692	1.2984772048461684	0.4319390964550653	0.6938019449294592	1.6874375996983035	0.4090100211401212	0.49992945771146163	1.6932407799321811	0.4741609358111863	0.5049891553024517	1.6809924643616754	0.41895643483054196	0.737691020189039	1.742313639580975	0.2351043588037301	0.5608326882344966	0.8336244263130445	0.20445440373561682	0.6057452685054595	1.2833421791706352	0.2050604278885066	0.6831902668148304	1.704041689156974	0.24196277106638298	0.45534671858273523	1.6778222529714109	0.18828492704147018	0.5222905966308559	1.6998380482911066	0.21771838257258616	0.7171893900211184	1.7433581629802748	0.30922911401247527	0.4623962432572717	0.3390942061916948	0.2763999543262358	0.3489360092283494	0.10569686817801636	0.311936411377436	0.2906568736302685	0.23221682043353986	0.46394050556522387	0.41325784728440046	0.40055515010199666	0.475127369676915	0.2595353950700988	0.592298557279409	0.3321169126527499	0.05754429828252706	0.5986041864749565	0.25221563957337756	-0.020773206168876835	0.5702814702432564	0.2530780347484688	-0.05084267634821603	0.5748876479074673	0.26067756483856636	-0.03763301029399388	0.6210311030247729	0.18421706284487668	0.4683547296447408	0.38157857692766517	0.14958338445302702	0.22597094689028285	0.33642700828316446	0.29571405852143606	0.11108365949650095	0.19508447445579083	0.3713281669877817	0.058131104497557755	0.12561017395139504	0.3676831787581996	0.04878130455803577	0.10914234749904575	0.3443407389489768	0.06656803901768694	0.12800715799207796
